<svg width="34" height="31" viewBox="0 0 34 31" fill="none" xmlns="http://www.w3.org/2000/svg">
<path d="M31.3044 2.31312C31.0945 2.11936 30.8283 1.98574 30.538 1.92836C30.2477 1.87098 29.9456 1.89228 29.6681 1.9897L3.99798 10.9584H3.99285C3.69687 11.0634 3.44324 11.2503 3.26662 11.4934C3.08999 11.7365 2.99897 12.024 3.00599 12.3167C3.01301 12.6093 3.11773 12.8929 3.30584 13.1285C3.49395 13.3642 3.75629 13.5405 4.05702 13.6334L4.08333 13.6411L12.8939 17.114C13.0658 17.1621 13.2483 17.1678 13.4233 17.1305C13.5983 17.0932 13.7596 17.0142 13.8911 16.9013L28.0317 4.73876C28.0739 4.69987 28.1239 4.66902 28.1789 4.64797C28.234 4.62692 28.293 4.61609 28.3526 4.61609C28.4122 4.61609 28.4712 4.62692 28.5262 4.64797C28.5813 4.66902 28.6313 4.69987 28.6734 4.73876C28.7156 4.77766 28.749 4.82383 28.7718 4.87465C28.7946 4.92547 28.8063 4.97993 28.8063 5.03493C28.8063 5.08994 28.7946 5.1444 28.7718 5.19522C28.749 5.24604 28.7156 5.29221 28.6734 5.33111L15.4967 18.378C15.3744 18.4995 15.2888 18.6484 15.2484 18.8099C15.208 18.9714 15.2141 19.1399 15.2663 19.2985L19.0299 27.4361C19.0338 27.448 19.0376 27.4587 19.0421 27.4699C19.2474 28.019 19.7672 28.4064 20.3955 28.4325H20.4596C20.7768 28.4341 21.0871 28.3477 21.3503 28.1844C21.6136 28.0211 21.8175 27.7884 21.9355 27.5167L31.6503 3.82774C31.7573 3.57142 31.7816 3.29197 31.7203 3.02317C31.6589 2.75437 31.5144 2.50775 31.3044 2.31312Z" fill="white"/>
</svg>
