<svg width="23" height="23" viewBox="0 0 23 23" fill="none" xmlns="http://www.w3.org/2000/svg">
<path fill-rule="evenodd" clip-rule="evenodd" d="M7.66666 11.5C7.66666 10.4459 6.80416 9.58335 5.74999 9.58335C4.69583 9.58335 3.83333 10.4459 3.83333 11.5C3.83333 12.5542 4.69583 13.4167 5.74999 13.4167C6.80416 13.4167 7.66666 12.5542 7.66666 11.5ZM9.58333 11.5C9.58333 12.5542 10.4458 13.4167 11.5 13.4167C12.5542 13.4167 13.4167 12.5542 13.4167 11.5C13.4167 10.4459 12.5542 9.58335 11.5 9.58335C10.4458 9.58335 9.58333 10.4459 9.58333 11.5ZM17.25 13.4167C16.1958 13.4167 15.3333 12.5542 15.3333 11.5C15.3333 10.4459 16.1958 9.58335 17.25 9.58335C18.3042 9.58335 19.1667 10.4459 19.1667 11.5C19.1667 12.5542 18.3042 13.4167 17.25 13.4167Z" fill="white"/>
</svg>
