<svg width="36" height="35" viewBox="0 0 36 35" fill="none" xmlns="http://www.w3.org/2000/svg">
<path fill-rule="evenodd" clip-rule="evenodd" d="M22.14 19.3521L30.735 27.7083L28.5 29.8813L19.905 21.525C18.3 22.6479 16.365 23.3333 14.25 23.3333C8.865 23.3333 4.5 19.0896 4.5 13.8542C4.5 8.61875 8.865 4.375 14.25 4.375C19.635 4.375 24 8.61875 24 13.8542C24 15.9104 23.295 17.7917 22.14 19.3521ZM14.25 7.29167C10.515 7.29167 7.5 10.2229 7.5 13.8542C7.5 17.4854 10.515 20.4167 14.25 20.4167C17.985 20.4167 21 17.4854 21 13.8542C21 10.2229 17.985 7.29167 14.25 7.29167Z" fill="#CA33F8"/>
</svg>
